Coordinates
version=1
nRows=14
nColumns=24
inDegrees=yes

Units are S.I. units (second, meters, Newtons, ...)
Angles are in degrees.

endheader
time	pelvis_tilt	pelvis_list	pelvis_rotation	pelvis_tx	pelvis_ty	pelvis_tz	hip_flexion_r	hip_adduction_r	hip_rotation_r	knee_angle_r	ankle_angle_r	subtalar_angle_r	mtp_angle_r	hip_flexion_l	hip_adduction_l	hip_rotation_l	knee_angle_l	ankle_angle_l	subtalar_angle_l	mtp_angle_l	lumbar_extension	lumbar_bending	lumbar_rotation
      3.38500000	     -5.77481980	      2.87859808	    356.77314626	     -0.16288870	      1.39028280	     -1.07281665	     27.70991973	     -1.79304234	      1.91273097	    -26.62556014	      0.63951402	     -8.64730325	     19.42189805	      4.45763866	      8.30071363	      4.45284954	     -8.93654955	      2.99555932	     -5.37263236	     10.41845882	     -7.38469484	      0.40623431	      8.83767370
      3.39000000	     -5.78398098	      2.92113368	    356.90742272	     -0.15854114	      1.38974261	     -1.07281998	     27.57384897	     -1.90849563	      1.91154632	    -24.79923311	      0.04054459	     -8.80178998	     19.15282571	      4.19941885	      8.38017101	      4.68335502	     -8.96541730	      3.21710868	     -5.42230078	     10.31620958	     -7.38463764	      0.34155344	      8.73935407
      3.39500000	     -5.78643676	      2.96896632	    357.03317091	     -0.15413170	      1.38918713	     -1.07279886	     27.40844405	     -2.03005387	      1.90596915	    -22.94846355	     -0.59766021	     -8.94262955	     18.89187871	      3.91785470	      8.46234319	      4.87514752	     -8.96733409	      3.43949531	     -5.47918060	     10.18682416	     -7.39008413	      0.28019753	      8.61521228
      3.40000000	     -5.85409537	      3.02732521	    357.17596507	     -0.14968728	      1.38851971	     -1.07280720	     27.30104045	     -2.17224127	      1.87877391	    -21.09644974	     -1.17443109	     -8.97332172	     18.66807524	      3.71917499	      8.55584625	      5.11436815	     -8.99863955	      3.68824409	     -5.54489004	     10.13357598	     -7.30779448	      0.19965866	      8.56242706
      3.40500000	     -5.84746133	      3.09026393	    357.30674537	     -0.14528888	      1.38793032	     -1.07273892	     27.09116512	     -2.30990646	      1.90435185	    -19.21327986	     -1.84793898	     -9.09176614	     18.42839904	      3.43817426	      8.65122579	      5.31834136	     -9.02279237	      3.88320466	     -5.60587404	      9.97305736	     -7.35282562	      0.12602976	      8.39503969
      3.41000000	     -5.87885134	      3.14884937	    357.44346772	     -0.14081337	      1.38727819	     -1.07269398	     26.90145552	     -2.45076975	      1.90372991	    -17.32435209	     -2.46710754	     -9.11026153	     18.24797237	      3.19485503	      8.74053536	      5.53298054	     -9.05175585	      4.11741482	     -5.64755711	      9.85024332	     -7.33426899	      0.05446785	      8.29552324
      3.41500000	     -5.90543247	      3.20119799	    357.57958248	     -0.13627986	      1.38661523	     -1.07263836	     26.68034136	     -2.58674337	      1.90703178	    -15.41926730	     -3.07149505	     -9.08576876	     18.11789145	      2.93888965	      8.82148520	      5.74668744	     -9.07612573	      4.35543161	     -5.68655672	      9.71812949	     -7.32194341	     -0.00642733	      8.20084748
      3.42000000	     -5.95898616	      3.27382873	    357.73423993	     -0.13172164	      1.38590149	     -1.07258472	     26.47690993	     -2.75197255	      1.88239260	    -13.52532359	     -3.67269267	     -9.01550676	     18.00386536	      2.71799798	      8.92365624	      5.98059650	     -9.11372761	      4.58143094	     -5.73865183	      9.61690288	     -7.28053245	     -0.09130070	      8.08476032
      3.42500000	     -5.99734931	      3.34471923	    357.88982453	     -0.12710018	      1.38517669	     -1.07251779	     26.23426285	     -2.91694024	      1.85532535	    -11.63183926	     -4.24782732	     -8.89150642	     17.94026344	      2.46973207	      9.02217616	      6.21557553	     -9.14105386	      4.80708668	     -5.78988277	      9.51359473	     -7.25470444	     -0.17190817	      7.97325414
      3.43000000	     -6.13252237	      3.44257902	    358.02399482	     -0.12243389	      1.38430348	     -1.07241347	     26.11080265	     -3.09372937	      1.83287197	     -9.80003827	     -4.77555159	     -8.62956911	     17.84317358	      2.34138728	      9.14302771	      6.39565651	     -9.19474403	      5.00989819	     -5.83345825	      9.50432086	     -7.10612808	     -0.29401200	      7.96265069
      3.43500000	     -6.06050301	      3.51376008	    358.21761608	     -0.11769603	      1.38363580	     -1.07235185	     25.70154889	     -3.28076706	      1.74167161	     -7.93058756	     -5.30227059	     -8.45240758	     17.88999219	      1.93913842	      9.24357901	      6.70855943	     -9.18171843	      5.24128455	     -5.90928399	      9.33187261	     -7.21634321	     -0.35518588	      7.71545995
      3.44000000	     -6.11025571	      3.61705437	    358.38844468	     -0.11292251	      1.38279440	     -1.07225038	     25.45757118	     -3.47941693	      1.65077398	     -6.17009474	     -5.76320031	     -8.13869730	     17.94848108	      1.69019827	      9.37130650	      6.96331328	     -9.20919821	      5.46872363	     -5.95429011	      9.21891824	     -7.17371370	     -0.46595003	      7.58761420
      3.44500000	     -6.16270836	      3.72911794	    358.56133456	     -0.10812169	      1.38192299	     -1.07212229	     25.22849190	     -3.68176191	      1.53206101	     -4.49865855	     -6.16003596	     -7.74420731	     17.99836671	      1.43942452	      9.50458752	      7.22559375	     -9.23072338	      5.68486635	     -6.01085152	      9.11418209	     -7.13048904	     -0.58414621	      7.44742926
      3.45000000	     -6.19926653	      3.83592881	    358.74013430	     -0.10328467	      1.38104837	     -1.07199328	     24.99192622	     -3.87594452	      1.38661202	     -2.92446655	     -6.47067538	     -7.29339223	     18.03401606	      1.16745811	      9.63030276	      7.50519277	     -9.25399016	      5.90213847	     -6.05937066	      9.03634916	     -7.10295543	     -0.69670757	      7.32154831
